<?xml version="1.0" encoding="UTF-8" standalone="no"?>
<!DOCTYPE svg PUBLIC "-//W3C//DTD SVG 1.1//EN" "http://www.w3.org/Graphics/SVG/1.1/DTD/svg11.dtd">
<svg width="100%" height="100%" viewBox="0 0 128 128" version="1.1" xmlns="http://www.w3.org/2000/svg" xmlns:xlink="http://www.w3.org/1999/xlink" xml:space="preserve" xmlns:serif="http://www.serif.com/" style="fill-rule:evenodd;clip-rule:evenodd;stroke-linejoin:round;stroke-miterlimit:2;">
    <path d="M128,14C128,6.273 121.727,0 114,0L14,0C6.273,0 0,6.273 0,14L0,114C0,121.727 6.273,128 14,128L114,128C121.727,128 128,121.727 128,114L128,14Z" style="fill:rgb(14,14,13);"/>
    <path d="M7,3C7,1.344 5.656,0 4,0L3,0C1.344,0 0,1.344 0,3L0,125C0,126.656 1.344,128 3,128L4,128C5.656,128 7,126.656 7,125L7,3Z" style="fill:rgb(74,142,146);"/>
    <g transform="matrix(1,0,0,1,24,88)">
        <text x="0px" y="0px" style="font-family:'BerkeleyMono-Bold', 'Berkeley Mono';font-weight:700;font-size:70px;fill:rgb(237,179,45);">J</text>
    </g>
    <g transform="matrix(1,0,0,1,72,88)">
        <text x="0px" y="0px" style="font-family:'BerkeleyMono-Bold', 'Berkeley Mono';font-weight:700;font-size:70px;fill:rgb(251,251,231);">1</text>
    </g>
</svg>
